<?xml version="1.0" encoding="UTF-8"?> <svg xmlns="http://www.w3.org/2000/svg" width="250" height="244" viewBox="0 0 250 244" fill="none"><path fill-rule="evenodd" clip-rule="evenodd" d="M67.4098 0H246.951L182.591 244H3.04883L67.4098 0ZM115.559 112.07V58.9435H102.684V112.07H115.559ZM83.1909 112.07V102.319H70.1952V112.07H83.1909ZM175.015 70.9985V58.9435H130.699V70.9985H146.404V112.07H159.311V70.9985H175.015ZM109.023 145.409V133.196H70.1952V186.322H83.0068V165.12H105.882V153.065H83.0068V145.409H109.023ZM164.136 158.705C163.681 158.265 163.176 157.853 162.629 157.465L162.702 157.383C164.981 154.809 166.018 151.589 166.018 147.999C166.018 144.861 165.162 141.976 163.396 139.464L163.391 139.456C160.268 135.042 155.185 133.196 149.095 133.196H125.826V186.322H148.777C155.555 186.322 161.148 184.285 164.768 179.601C167.079 176.613 168.271 173.198 168.271 169.456C168.271 165.212 167.005 161.488 164.142 158.711L164.136 158.705ZM155.459 169.169C155.459 170.591 155.104 171.607 154.534 172.389C153.713 173.502 152.139 174.426 148.873 174.426H138.51V164.516H147.794C150.215 164.516 151.875 164.824 152.944 165.26C153.96 165.672 154.526 166.177 154.857 166.684C155.195 167.197 155.459 167.965 155.459 169.169ZM151.513 152.138C150.677 152.557 149.182 152.906 146.747 152.906H138.51V144.965H146.525C149.132 144.965 150.679 145.259 151.471 145.594C152.16 145.889 152.522 146.244 152.745 146.615C152.986 147.015 153.207 147.671 153.207 148.761C153.207 149.864 152.995 150.569 152.743 151.023C152.506 151.449 152.143 151.824 151.513 152.138Z" fill="#0077EE"></path></svg> 